<?xml version="1.0" encoding="UTF-8"?>
<svg id="Layer_2" data-name="Layer 2" xmlns="http://www.w3.org/2000/svg" xmlns:xlink="http://www.w3.org/1999/xlink" viewBox="0 0 656.01 77.56">
  <defs>
    <style>
      .pn-cls-1 { fill: url(#pn-linear-gradient-5); }
      .pn-cls-2 { fill: url(#pn-linear-gradient-6); }
      .pn-cls-3 { fill: url(#pn-linear-gradient-4); }
      .pn-cls-4 { fill: url(#pn-linear-gradient-3); }
      .pn-cls-5 { fill: url(#pn-linear-gradient-2); }
      .pn-cls-6 { fill: url(#pn-linear-gradient); }
      .pn-cls-7 { fill: currentColor; }
    </style>
    <linearGradient id="pn-linear-gradient" x1="-6.45" y1="37.72" x2="381.47" y2="37.72" gradientTransform="translate(0 75.87) scale(1 -1)" gradientUnits="userSpaceOnUse">
      <stop offset="0" stop-color="currentColor"/>
      <stop offset="1" stop-color="currentColor"/>
    </linearGradient>
    <linearGradient id="pn-linear-gradient-2" y1="28.09" y2="28.09" xlink:href="#pn-linear-gradient"/>
    <linearGradient id="pn-linear-gradient-3" y1="28.61" y2="28.61" xlink:href="#pn-linear-gradient"/>
    <linearGradient id="pn-linear-gradient-4" y1="28.09" y2="28.09" xlink:href="#pn-linear-gradient"/>
    <linearGradient id="pn-linear-gradient-5" y1="28.09" y2="28.09" xlink:href="#pn-linear-gradient"/>
    <linearGradient id="pn-linear-gradient-6" y1="27.99" y2="27.99" xlink:href="#pn-linear-gradient"/>
  </defs>
  <g>
    <g>
      <path class="pn-cls-7" d="M477.11,24.12c-1.78-1.92-3.94-3.4-6.49-4.45s-5.46-1.57-8.74-1.57c-4.68,0-8.48,1.03-11.41,3.09s-5.31,4.56-7.12,7.49v-9.42h-8.06v54.14h8.06v-31c0-2.51.4-4.82,1.2-6.91.8-2.09,1.94-3.89,3.4-5.39,1.47-1.5,3.19-2.65,5.18-3.46,1.99-.8,4.14-1.2,6.44-1.2,4.82,0,8.52,1.47,11.1,4.4,2.58,2.93,3.88,6.91,3.88,11.94v31.62h8.06v-33.61c0-3.21-.47-6.14-1.41-8.8-.94-2.65-2.3-4.94-4.08-6.86h-.01Z"/>
      <path class="pn-cls-7" d="M544.91,26.42c-2.51-2.55-5.5-4.57-8.95-6.07-3.46-1.5-7.21-2.25-11.26-2.25s-7.91.75-11.36,2.25c-3.46,1.5-6.44,3.54-8.95,6.13-2.51,2.58-4.47,5.6-5.86,9.06-1.4,3.46-2.09,7.1-2.09,10.94s.7,7.47,2.09,10.89c1.4,3.42,3.35,6.41,5.86,8.95,2.51,2.55,5.48,4.57,8.9,6.07,3.42,1.5,7.16,2.25,11.2,2.25s7.82-.75,11.31-2.25,6.49-3.54,9-6.13c2.51-2.58,4.49-5.6,5.92-9.06s2.15-7.1,2.15-10.94-.7-7.47-2.09-10.89c-1.4-3.42-3.35-6.4-5.86-8.95h-.01ZM543.13,54.62c-.98,2.54-2.34,4.75-4.08,6.63-1.75,1.88-3.84,3.36-6.28,4.44s-5.13,1.62-8.06,1.62-5.52-.56-7.96-1.67-4.55-2.61-6.33-4.49-3.18-4.11-4.19-6.69-1.52-5.33-1.52-8.25.49-5.66,1.47-8.2c.98-2.54,2.32-4.77,4.03-6.69,1.71-1.91,3.79-3.41,6.23-4.49s5.13-1.62,8.06-1.62,5.51.56,7.96,1.67c2.44,1.11,4.57,2.63,6.39,4.54s3.23,4.16,4.24,6.74,1.52,5.33,1.52,8.25-.49,5.66-1.47,8.2h0Z"/>
      <path class="pn-cls-7" d="M578.32,2.91h-8.06v16.34h-7.54v7.12h7.54v32.67c0,2.72.38,5.06,1.15,7.02s1.83,3.54,3.19,4.76c1.36,1.22,2.98,2.11,4.87,2.67,1.88.56,3.91.84,6.07.84,1.95,0,3.72-.19,5.29-.58,1.57-.38,3.05-.96,4.45-1.73v-6.91c-1.4.7-2.71,1.19-3.93,1.47-1.22.28-2.53.42-3.93.42-2.72,0-4.92-.66-6.6-1.99-1.68-1.33-2.51-3.67-2.51-7.02v-31.62h17.17v-7.12h-17.17V2.91h.01Z"/>
      <path class="pn-cls-7" d="M649.42,26.47c-2.16-2.58-4.82-4.62-7.96-6.13-3.14-1.5-6.7-2.25-10.68-2.25-3.77,0-7.24.73-10.42,2.2-3.18,1.47-5.92,3.47-8.22,6.02-2.3,2.55-4.1,5.55-5.39,9.01s-1.94,7.14-1.94,11.05c0,4.19.73,8.03,2.17,11.52,1.45,3.49,3.4,6.48,5.86,8.95,2.46,2.48,5.33,4.4,8.61,5.76s6.77,2.04,10.47,2.04c5.17,0,9.49-.93,12.98-2.77,3.49-1.85,6.6-4.31,9.32-7.38l-5.03-4.5c-2.24,2.3-4.7,4.15-7.38,5.55-2.69,1.4-5.92,2.09-9.69,2.09-2.37,0-4.64-.4-6.81-1.2s-4.12-1.99-5.86-3.56c-1.75-1.57-3.18-3.49-4.29-5.76-1.12-2.27-1.82-4.87-2.09-7.8h42.83c.07-.49.11-.94.11-1.36v-1.15c0-3.98-.56-7.71-1.68-11.2s-2.76-6.53-4.92-9.11v-.02ZM613.08,43.33c.28-2.65.9-5.09,1.87-7.33.97-2.23,2.22-4.17,3.75-5.81s3.3-2.93,5.31-3.87,4.2-1.41,6.56-1.41c2.71,0,5.08.51,7.13,1.52s3.78,2.36,5.21,4.03c1.42,1.68,2.53,3.63,3.33,5.86.8,2.23,1.3,4.57,1.51,7.02h-34.67Z"/>
    </g>
    <g>
      <path class="pn-cls-6" d="M49.84,6.57c-2.54-2.1-5.63-3.74-9.19-4.88-3.52-1.12-7.46-1.69-11.71-1.69H0v76.3h11.27v-25.86h16.3c4.03,0,7.91-.53,11.52-1.58,3.66-1.06,6.91-2.68,9.66-4.81,2.78-2.15,5.02-4.86,6.65-8.04h0c1.64-3.2,2.47-6.96,2.47-11.16,0-3.82-.7-7.32-2.07-10.4-1.38-3.1-3.39-5.75-5.96-7.88h0ZM46.6,25.16c0,2.21-.43,4.23-1.27,6.01s-2.08,3.33-3.68,4.6c-1.63,1.31-3.62,2.33-5.91,3.04-2.33.72-4.95,1.08-7.8,1.08H11.28V10.64h17.08c5.59,0,10.11,1.26,13.44,3.73,3.23,2.41,4.8,5.94,4.8,10.79h0Z"/>
      <path class="pn-cls-5" d="M111.97,26.92c-2.29-2.73-5.14-4.93-8.46-6.52-3.33-1.59-7.14-2.4-11.33-2.4-3.97,0-7.69.79-11.05,2.34-3.34,1.54-6.27,3.69-8.7,6.38-2.42,2.68-4.34,5.87-5.69,9.48-1.35,3.6-2.03,7.5-2.03,11.57,0,4.37.77,8.44,2.29,12.1,1.52,3.66,3.6,6.83,6.18,9.43,2.59,2.61,5.65,4.66,9.1,6.09,3.45,1.43,7.16,2.16,11.05,2.16,5.39,0,9.99-.99,13.69-2.95,3.63-1.93,6.91-4.52,9.74-7.71l.99-1.12-7.21-6.46-1,1.03c-2.11,2.18-4.47,3.95-7,5.26-2.46,1.28-5.48,1.92-8.99,1.92-2.19,0-4.3-.37-6.29-1.11-1.97-.73-3.78-1.83-5.38-3.27s-2.92-3.22-3.95-5.31h0c-.82-1.67-1.4-3.56-1.74-5.64h42.43l.18-1.29c.08-.56.12-1.09.12-1.57v-1.15c0-4.11-.59-8.03-1.75-11.66-1.17-3.66-2.92-6.89-5.2-9.62v.02ZM107.47,43.24h-31.26c.32-1.86.83-3.62,1.53-5.23.9-2.07,2.07-3.88,3.47-5.39,1.39-1.49,3.02-2.68,4.85-3.54,1.8-.84,3.79-1.27,5.92-1.27,2.46,0,4.63.46,6.46,1.36,1.85.92,3.44,2.15,4.73,3.66,1.3,1.53,2.33,3.34,3.06,5.4.57,1.6.99,3.28,1.24,5.01h0Z"/>
      <path class="pn-cls-4" d="M154.04,19.23c-2.38.74-4.61,1.86-6.61,3.3-1.99,1.44-3.78,3.17-5.33,5.16-.34.44-.67.88-.98,1.34v-9.87h-11.06v57.14h11.06v-23.07c0-3.86.53-7.3,1.59-10.23,1.04-2.9,2.49-5.35,4.29-7.29,1.79-1.92,3.92-3.38,6.32-4.34,2.42-.97,5.04-1.46,7.77-1.46h2.13v-11.65l-1.46-.04c-2.74-.07-5.33.27-7.71,1.01h-.01Z"/>
      <path class="pn-cls-3" d="M184.39,75.4c3.45,1.43,7.16,2.16,11.05,2.16,5.39,0,9.99-.99,13.69-2.95,3.63-1.93,6.91-4.52,9.74-7.71l.99-1.12-7.21-6.46-1,1.03c-2.11,2.18-4.47,3.95-7,5.26-2.46,1.28-5.49,1.92-8.99,1.92-2.19,0-4.3-.37-6.29-1.11-1.97-.73-3.78-1.83-5.38-3.27s-2.92-3.22-3.95-5.31h0c-.82-1.67-1.4-3.56-1.74-5.64h42.43l.18-1.29c.08-.56.12-1.09.12-1.57v-1.15c0-4.11-.59-8.03-1.75-11.66-1.17-3.66-2.92-6.89-5.2-9.62-2.29-2.73-5.14-4.93-8.46-6.52-3.33-1.59-7.14-2.4-11.33-2.4s-7.69.79-11.05,2.34c-3.34,1.54-6.27,3.69-8.7,6.38-2.42,2.68-4.34,5.87-5.69,9.48-1.35,3.6-2.03,7.5-2.03,11.57,0,4.37.77,8.44,2.29,12.1,1.52,3.66,3.6,6.83,6.18,9.43,2.59,2.61,5.65,4.66,9.1,6.09v.02ZM178.3,43.24c.32-1.86.83-3.62,1.53-5.23.9-2.07,2.07-3.88,3.47-5.39,1.39-1.49,3.02-2.68,4.85-3.54,1.8-.84,3.79-1.27,5.92-1.27,2.46,0,4.63.46,6.46,1.36,1.85.92,3.44,2.15,4.73,3.66,1.29,1.52,2.32,3.34,3.06,5.4.57,1.6.99,3.28,1.24,5.01h-31.26,0Z"/>
      <path class="pn-cls-1" d="M384.8,36.54c-1.17-3.66-2.92-6.89-5.2-9.62-2.29-2.73-5.14-4.93-8.46-6.52-3.33-1.59-7.14-2.4-11.33-2.4s-7.69.79-11.05,2.34c-3.34,1.54-6.27,3.69-8.71,6.38-2.42,2.68-4.34,5.87-5.69,9.48-1.35,3.6-2.03,7.5-2.03,11.57,0,4.37.77,8.44,2.29,12.1,1.52,3.66,3.6,6.83,6.18,9.43,2.59,2.61,5.65,4.66,9.1,6.09,3.45,1.43,7.16,2.16,11.05,2.16,5.39,0,9.99-.99,13.69-2.95,3.64-1.93,6.91-4.52,9.74-7.71l.99-1.12-7.21-6.46-1,1.03c-2.11,2.18-4.47,3.95-7,5.26-2.46,1.28-5.49,1.92-8.99,1.92-2.19,0-4.3-.37-6.29-1.11-1.97-.73-3.79-1.83-5.38-3.27-1.6-1.44-2.92-3.22-3.95-5.31h0c-.82-1.67-1.4-3.56-1.74-5.64h42.43l.18-1.29c.08-.56.12-1.09.12-1.57v-1.15c0-4.11-.59-8.03-1.75-11.66v.02ZM375.09,43.24h-31.26c.32-1.86.83-3.62,1.53-5.23.9-2.07,2.07-3.88,3.47-5.39,1.39-1.49,3.02-2.68,4.85-3.54,1.8-.84,3.79-1.27,5.92-1.27,2.46,0,4.63.46,6.47,1.36,1.85.92,3.44,2.15,4.73,3.66,1.3,1.53,2.33,3.34,3.06,5.4.57,1.6.99,3.28,1.24,5.01h0Z"/>
      <path class="pn-cls-2" d="M310.71,62.5c-2.98-5.15-5.68-10.75-8.31-16.19-3.06-6.33-6.22-12.88-9.84-18.78-4.08-6.66-12.62-10.77-21.04-5.74-6.21,3.71-10.39,12.02-4.89,21.5,1.08,1.86,3.15,4.28,5.35,6.84,2.83,3.3,6.35,7.41,6.73,9.43.42,2.28-.49,4.43-2.34,5.47-1.63.92-3.52.69-5.09-.62-4.41-6.73-8.11-14.22-11.69-21.47-2.75-5.56-5.59-11.32-8.74-16.7-2.4-4.11-4.74-7.19-11.01-6.5-3.95.44-7.69,4.57-7.69,8.5v47.95h10.5v-43.15c2.9,4.9,5.5,10.45,8.03,15.85,3.29,7.01,6.69,14.26,10.8,20.24,3.49,5.07,8.1,7.07,12.5,7.07,2.97,0,5.84-.91,8.2-2.4,6.04-3.81,10.08-12.2,4.66-21.6-1.27-2.21-3.39-4.63-5.64-7.2-2.75-3.14-5.59-6.39-6.34-8.76-.85-2.7.55-4.77,2.32-5.62,1.72-.83,4.23-.73,6.08,2.03,4.03,6,7.49,13.25,10.83,20.27,2.9,6.08,5.9,12.37,9.28,17.88,1.72,2.8,4.16,4.65,6.88,5.21,2.39.5,4.83-.05,7.02-1.59,1.78-1.24,3.92-4.53,3.92-6.75V19.72h-10.5v42.76l.02.02Z"/>
    </g>
  </g>
</svg>
