<?xml version="1.0" encoding="UTF-8"?>
<svg xmlns="http://www.w3.org/2000/svg" viewBox="0 0 672.11 422.99">
  <path fill="currentColor" d="M603.51,327.64V1.26s0-.01.01-.01h68.57s.01,0,.01.01v362.34c0,14.91-15.15,38.26-27.55,46.92-11.81,8.25-24.51,12.46-37.3,12.46-4,0-8-.41-11.99-1.24-19.27-4.01-36.66-17.26-48.97-37.31-25.81-42.04-48.78-90.21-71-136.81-25.8-54.11-52.47-110.06-83.66-156.48-16.42-24.44-39.53-24.78-54.35-17.64-15.92,7.67-28.57,26.24-20.92,50.41,6.14,19.4,28.39,44.83,49.91,69.43,17.04,19.47,33.12,37.86,42.62,54.33,39.64,68.78,10.28,130.02-33.77,157.81-17.2,10.85-38.07,17.46-59.64,17.46-32.08,0-65.72-14.61-91.22-51.67-31.33-45.52-57.34-101.01-82.49-154.67-20.03-42.73-40.65-86.74-63.86-125.38-2.63-4.37-9.34-2.52-9.34,2.58v329.1s0,.01-.01.01H.01s-.01,0-.01-.01V60.59c0-13.03,6.08-27.18,16.69-38.83C27.24,10.18,40.73,2.71,53.72,1.28c44.72-4.94,60.86,16.36,78.77,46.98,24.09,41.18,45.86,85.29,66.92,127.95,27.48,55.66,55.88,113.19,89.81,165.04.55.84,1.22,1.61,2,2.24,14,11.37,30.85,13.26,45.48,4.97,16.43-9.31,24.63-28.31,20.9-48.39-3.18-17.11-29.66-48.02-53.01-75.28-16.68-19.48-32.44-37.87-40.46-51.69-18.06-31.11-23.1-63.3-14.58-93.1,7.57-26.47,25.33-49.16,50-63.88,24.52-14.63,52.71-19.52,79.39-13.76,29.97,6.46,55.56,25.78,74,55.86,27.63,45.06,51.86,95.25,75.29,143.79,20,41.43,42.73,87.88,65.92,128.15,2.56,4.45,9.36,2.63,9.36-2.5Z"/>
</svg>
